<svg xmlns="http://www.w3.org/2000/svg" xmlns:xlink="http://www.w3.org/1999/xlink" width="25" height="25" viewBox="0 0 25 25"><defs><style>.a,.f{fill:#3b3f48;}.a,.d{stroke:#3b3f48;}.b{clip-path:url(#a);}.c,.d{fill:none;}.d{stroke-linecap:round;stroke-linejoin:round;stroke-width:2px;}.e,.f{stroke:none;}</style><clipPath id="a"><rect class="a" width="25" height="25" transform="translate(9583 3640)"/></clipPath></defs><g class="b" transform="translate(-9583 -3640)"><g transform="translate(9583.448 3640.103)"><g class="c"><path class="e" d="M10.29,3.86,1.82,18a2,2,0,0,0,1.71,3H20.47a2,2,0,0,0,1.71-3L13.71,3.86a2,2,0,0,0-3.42,0Z"/><path class="f" d="M 12 4.397256851196289 C 11.82715511322021 4.397256851196289 11.6640567779541 4.48863410949707 11.57374858856201 4.635902404785156 L 3.114953994750977 18.75719451904297 C 3.030498504638672 18.9091854095459 3.031318664550781 19.09636306762695 3.117599487304688 19.24773788452148 C 3.204326629638672 19.39988136291504 3.366214752197266 19.49617004394531 3.541080474853516 19.49999809265137 L 20.45891952514648 19.49999809265137 C 20.63378524780273 19.49617004394531 20.79567337036133 19.39987945556641 20.88241004943848 19.24771690368652 C 20.96868133544922 19.09636116027832 20.96950149536133 18.9091854095459 20.88504600524902 18.75719451904297 L 12.42625141143799 4.635902404785156 C 12.3359432220459 4.48863410949707 12.17284488677979 4.397256851196289 12 4.397256851196289 M 12 2.897256851196289 C 12.69909000396729 2.897256851196289 13.34743022918701 3.262277603149414 13.71000003814697 3.859996795654297 L 22.18000030517578 17.99999809265137 C 22.53536033630371 18.61539840698242 22.53747940063477 19.37314796447754 22.18556976318359 19.99052810668945 C 21.83366966247559 20.60790824890137 21.18058967590332 20.9921875 20.46999931335449 20.99999809265137 L 3.530000686645508 20.99999809265137 C 2.81941032409668 20.9921875 2.166330337524414 20.60790824890137 1.814430236816406 19.99052810668945 C 1.462520599365234 19.37314796447754 1.464639663696289 18.61539840698242 1.819999694824219 17.99999809265137 L 10.28999996185303 3.859996795654297 C 10.65256977081299 3.262277603149414 11.30090999603271 2.897256851196289 12 2.897256851196289 Z"/></g><line class="d" y2="4" transform="translate(12 9)"/><line class="d" transform="translate(12 17)"/></g></g></svg>