<svg xmlns="http://www.w3.org/2000/svg" xmlns:xlink="http://www.w3.org/1999/xlink" width="28" height="28" viewBox="0 0 28 28"><defs><style>.a{fill:none;}.b{clip-path:url(#a);}.c{fill:#3b96ff;}.d{fill:#fff;}</style><clipPath id="a"><rect class="a" width="28" height="28"/></clipPath></defs><g class="b"><circle class="c" cx="14" cy="14" r="14"/><path class="d" d="M25.523,4.646a2.323,2.323,0,0,0,0-4.646A2.338,2.338,0,0,0,23.2,2.323a2.338,2.338,0,0,0,2.323,2.323" transform="translate(-6.611 5.504)"/><path class="d" d="M.954,14H0v3.277H.954A3.872,3.872,0,0,1,4.817,21.14,3.856,3.856,0,0,1,.954,25H0v3.277H.954a7.149,7.149,0,0,0,7.14-7.14A7.133,7.133,0,0,0,.954,14" transform="translate(10.916 -5.072)"/></g></svg>