<svg xmlns="http://www.w3.org/2000/svg" xmlns:xlink="http://www.w3.org/1999/xlink" width="25" height="25" viewBox="0 0 25 25"><defs><style>.a,.c{fill:#3b3f48;}.a,.c,.d{stroke:#3b3f48;}.b{clip-path:url(#a);}.c{stroke-width:0.25px;}.d{fill:none;stroke-linecap:round;stroke-width:1.2px;}</style><clipPath id="a"><rect class="a" width="25" height="25" transform="translate(9583 3640)"/></clipPath></defs><g class="b" transform="translate(-9583 -3640)"><g transform="translate(9601.427 3641.698) rotate(45)"><g transform="translate(0 0)"><path class="c" d="M0,14.151a.5.5,0,0,0,.1.3L3.344,18.7a.5.5,0,0,0,.8,0l3.243-4.25a.5.5,0,0,0,.1-.3V.5a.5.5,0,1,0-1,0V13.985l-2.745,3.6L1,13.985V.524a.5.5,0,1,0-1,0V14.151Z" transform="translate(0 5.756)"/><path class="c" d="M0,.5v12.54a.5.5,0,1,0,1,0V.5a.5.5,0,1,0-1,0Z" transform="translate(3.243 5.781)"/><path class="c" d="M0,1.959V4.19a.5.5,0,0,0,.5.5H6.98a.5.5,0,0,0,.5-.5V1.959A1.961,1.961,0,0,0,5.519,0H1.959A1.961,1.961,0,0,0,0,1.959Zm6.486,0V3.691H1V1.959A.965.965,0,0,1,1.959,1h3.56A.963.963,0,0,1,6.486,1.959Z"/></g></g></g><path class="d" d="M0,0,16.764,16.764" transform="translate(3.618 3.618)"/></svg>