<?xml version="1.0" encoding="UTF-8" standalone="no"?>
 <svg xmlns:svg="http://www.w3.org/2000/svg" xmlns="http://www.w3.org/2000/svg" width="146" height="36" viewBox="0 0 146 36">
   <path fill="#fa0a80" d="M108.968 11.758a2.644 2.644 0 0 0-2.649 2.649v13.244a2.65 2.65 0 1 0 5.3 0V14.448a2.679 2.679 0 0 0-2.649-2.69" data-name="Path 1067"/>
   <path fill="#fa0a80" d="M108.928 5.116a2.8 2.8 0 0 0-2.038.815 3.019 3.019 0 0 0-.815 2.16 2.989 2.989 0 0 0 .815 2.119 2.677 2.677 0 0 0 2.038.856 2.825 2.825 0 0 0 2.078-.815 3.019 3.019 0 0 0 .815-2.16 3.088 3.088 0 0 0-.815-2.16 2.618 2.618 0 0 0-2.078-.815" data-name="Path 1068"/>
   <path fill="#fa0a80" d="M143.688 11.758a2.276 2.276 0 0 0-2.16 1.549l-3.582 10.551-.245-.652-1.182-3.219-.367-1.141-2.119-5.583a2.35 2.35 0 1 0-4.36 1.752l5.42 12.8a2.508 2.508 0 0 1-.041 1.956 2.449 2.449 0 0 1-2.323 1.549 3.1 3.1 0 0 1-.856-.122 2.135 2.135 0 0 0-1.386 4.034c.041 0 .041 0 .082.041a7 7 0 0 0 2.527.408c3.016 0 5.135-1.508 6.357-4.564l.611-1.549 5.787-14.63a2.334 2.334 0 0 0-2.16-3.179" data-name="Path 1069"/>
   <path fill="#fa0a80" d="M125.961 20.438a25.861 25.861 0 0 0-3.3-1.1 16.739 16.739 0 0 1-2.975-1.06c-.041 0-.041-.041-.082-.041a.088.088 0 0 1-.081-.082 1.509 1.509 0 0 1-.652-1.263 1.568 1.568 0 0 1 1.223-1.508h.041a4.545 4.545 0 0 1 1.1-.122 7.291 7.291 0 0 1 2.893.489 1.878 1.878 0 0 1 .408.2 1.77 1.77 0 0 0 1.793-.122 1.857 1.857 0 0 0-.122-3.219 9.128 9.128 0 0 0-1.182-.489 12.227 12.227 0 0 0-3.464-.408 14.817 14.817 0 0 0-1.956.122l-.9.2a7.052 7.052 0 0 0-1.1.326 6.27 6.27 0 0 0-2.69 1.875 4.73 4.73 0 0 0-.937 2.893 4.091 4.091 0 0 0 .9 2.812 5.545 5.545 0 0 0 2.2 1.589 27.326 27.326 0 0 0 3.3 1.019c.937.245 1.671.489 2.2.652.285.122.57.245.815.367.041.041.082.041.122.082a1.7 1.7 0 0 1 .734 1.386 1.728 1.728 0 0 1-.978 1.549c-.041 0-.081.041-.122.041-.041 0-.082.041-.122.041-.04 0-.122.041-.163.041a5.989 5.989 0 0 1-1.3.163 9.47 9.47 0 0 1-3.545-.774c-.408-.163-.652-.285-.9-.408a1.907 1.907 0 0 0-1.63-.122 1.86 1.86 0 0 0-.244 3.3 5.963 5.963 0 0 0 1.589.734 18.185 18.185 0 0 0 4.686.774 10.866 10.866 0 0 0 2.037-.163l.937-.2a9.165 9.165 0 0 0 .978-.326 5.943 5.943 0 0 0 2.69-1.875 4.9 4.9 0 0 0 1.019-3.016 4.218 4.218 0 0 0-.937-2.853 7.422 7.422 0 0 0-2.282-1.508" data-name="Path 1070"/>
   <path fill="#fa0a80" d="M30.482 23.658v.041a6.7 6.7 0 0 1-1.06 1.345v-.041a5.241 5.241 0 0 1-3.464 1.345 5.174 5.174 0 0 1-5.175-5.135v-.2a1.128 1.128 0 0 1 .041-.367 1.448 1.448 0 0 1 .082-.408v-.082a5.173 5.173 0 0 1 10.228 1.06 5.6 5.6 0 0 1-.652 2.445m-4.524-11.903h-.082a10.1 10.1 0 0 0-3.342.571c-.367.122-.734.285-1.1.448a9.427 9.427 0 0 0-5.219 6.438 9.847 9.847 0 0 0-.2 1.915 8.452 8.452 0 0 0 .245 2.038 9.864 9.864 0 0 0 9.655 7.376h.041a9.676 9.676 0 0 0 3.464-.611 8.268 8.268 0 0 0 1.06-.448 9.495 9.495 0 0 0 5.175-6.4 10 10 0 0 0 .163-1.956 10.576 10.576 0 0 0-.122-1.63 9.81 9.81 0 0 0-9.738-7.741" data-name="Path 1071"/>
   <path fill="#fa0a80" d="M84.803 23.658v.041a6.7 6.7 0 0 1-1.06 1.345v-.041a5.241 5.241 0 0 1-3.464 1.345 5.174 5.174 0 0 1-5.175-5.135v-.2a1.128 1.128 0 0 1 .041-.367 1.448 1.448 0 0 1 .081-.408v-.082a5.173 5.173 0 0 1 10.228 1.06 5.6 5.6 0 0 1-.652 2.445m-4.525-11.903h-.082a10.1 10.1 0 0 0-3.342.571c-.367.122-.734.285-1.1.448a9.427 9.427 0 0 0-5.216 6.439 9.585 9.585 0 0 0-.163 1.915 10.788 10.788 0 0 0 .2 2.038 9.864 9.864 0 0 0 9.658 7.376h.041a9.676 9.676 0 0 0 3.464-.611 8.269 8.269 0 0 0 1.06-.448 9.495 9.495 0 0 0 5.175-6.4 10 10 0 0 0 .163-1.956 10.576 10.576 0 0 0-.122-1.63 9.81 9.81 0 0 0-9.736-7.742" data-name="Path 1072"/>
   <path fill="#fa0a80" d="M65.446 25.573a3.506 3.506 0 0 1-.652.041c-1.1 0-1.671-.774-1.671-2.282v-5.787h2.241a2 2 0 0 0 0-3.994h-2.241v-2.078a2.608 2.608 0 1 0-5.216 0V24.35a6.119 6.119 0 0 0 1.589 4.523 5.657 5.657 0 0 0 4.157 1.549 10.683 10.683 0 0 0 2.486-.326c.081 0 .163-.041.244-.041a2.219 2.219 0 0 0 1.549-2.73 2.19 2.19 0 0 0-2.486-1.752" data-name="Path 1073"/>
   <path fill="#fa0a80" d="M95.031 11.758a2.644 2.644 0 0 0-2.649 2.649v13.244a2.65 2.65 0 1 0 5.3 0V14.448a2.679 2.679 0 0 0-2.649-2.69" data-name="Path 1074"/>
   <path fill="#fa0a80" d="M101.266 11.758a2.8 2.8 0 0 0-2.038.815 3.215 3.215 0 0 0 0 4.279 2.677 2.677 0 0 0 2.038.856 2.825 2.825 0 0 0 2.078-.815 3.019 3.019 0 0 0 .815-2.16 3.088 3.088 0 0 0-.815-2.16 2.761 2.761 0 0 0-2.078-.815" data-name="Path 1075"/>
   <path fill="#fa0a80" d="M54.565 24.513a2.245 2.245 0 0 0-2.934.326.562.562 0 0 0-.122.163 4.731 4.731 0 0 1-3.464 1.345 5.174 5.174 0 0 1-5.175-5.135v-.2a1.128 1.128 0 0 1 .041-.367 1.448 1.448 0 0 1 .081-.408v-.082a5.162 5.162 0 0 1 5.053-4.075 5.363 5.363 0 0 1 3.26 1.141 2.2 2.2 0 0 0 2.69.122l.163-.122a2.14 2.14 0 0 0 .041-3.423 10.079 10.079 0 0 0-6.113-2h-.041a10.1 10.1 0 0 0-3.342.571c-.367.122-.734.285-1.1.448a9.427 9.427 0 0 0-5.216 6.439 9.584 9.584 0 0 0-.163 1.915 10.79 10.79 0 0 0 .2 2.038 9.864 9.864 0 0 0 9.658 7.376h.041a9.676 9.676 0 0 0 3.464-.611 8.269 8.269 0 0 0 1.06-.448 11.017 11.017 0 0 0 2.16-1.426 2.309 2.309 0 0 0-.244-3.586" data-name="Path 1076"/>
   <path fill="#fa0a80" d="M13.325 8.743a3.872 3.872 0 0 0 0-7.743 3.9 3.9 0 0 0-3.871 3.871 3.9 3.9 0 0 0 3.871 3.871" data-name="Path 1077"/>
   <path fill="#fa0a80" d="M1.589 6.705H0v5.461h1.589a6.452 6.452 0 0 1 6.439 6.439 6.426 6.426 0 0 1-6.439 6.439H0v5.461h1.589a11.913 11.913 0 0 0 11.9-11.9 11.887 11.887 0 0 0-11.9-11.9" data-name="Path 1078"/>
 </svg>
