<svg xmlns="http://www.w3.org/2000/svg" xmlns:xlink="http://www.w3.org/1999/xlink" width="28" height="28" viewBox="0 0 28 28"><defs><style>.a{fill:none;}.b{clip-path:url(#a);}.c{fill:#e8e9eb;}.d{fill:#a0aaad;}</style><clipPath id="a"><rect class="a" width="28" height="28"/></clipPath></defs><g class="b"><circle class="c" cx="14" cy="14" r="14"/><path class="d" d="M25.577,4.754a2.377,2.377,0,0,0,0-4.754A2.392,2.392,0,0,0,23.2,2.377a2.392,2.392,0,0,0,2.377,2.377" transform="translate(-7.636 3.9)"/><path class="d" d="M.976,14H0v3.353H.976a3.962,3.962,0,0,1,3.953,3.953A3.946,3.946,0,0,1,.976,25.259H0v3.353H.976a7.314,7.314,0,0,0,7.306-7.306A7.3,7.3,0,0,0,.976,14" transform="translate(9.76 -6.597)"/></g></svg>